<svg width="64" height="64" viewBox="0 0 64 64" fill="none" xmlns="http://www.w3.org/2000/svg">
<path fill-rule="evenodd" clip-rule="evenodd" d="M21.5 18.0021C22.3284 18.0021 23 18.6737 23 19.5023V22.2097C25.3085 22.8627 27 24.9854 27 27.5033C27 30.0212 25.3085 32.144 23 32.797V44.5056C23 45.3341 22.3284 46.0058 21.5 46.0058C20.6716 46.0058 20 45.3341 20 44.5056V32.797C17.6915 32.144 16 30.0212 16 27.5033C16 24.9854 17.6915 22.8627 20 22.2097V19.5023C20 18.6737 20.6716 18.0021 21.5 18.0021ZM21.5 25.003C20.1193 25.003 19 26.1224 19 27.5033C19 28.8842 20.1193 30.0037 21.5 30.0037C22.8807 30.0037 24 28.8842 24 27.5033C24 26.1224 22.8807 25.003 21.5 25.003Z" fill="#117DF9"/>
<path fill-rule="evenodd" clip-rule="evenodd" d="M32 18.0021C32.8284 18.0021 33.5 18.6737 33.5 19.5023V30.7108C35.8085 31.3638 37.5 33.4866 37.5 36.0045C37.5 38.5223 35.8085 40.6451 33.5 41.2981V44.5056C33.5 45.3341 32.8284 46.0058 32 46.0058C31.1716 46.0058 30.5 45.3341 30.5 44.5056V41.2981C28.1915 40.6451 26.5 38.5223 26.5 36.0045C26.5 33.4866 28.1915 31.3638 30.5 30.7108V19.5023C30.5 18.6737 31.1716 18.0021 32 18.0021ZM29.5 36.0045C29.5 34.6236 30.6193 33.5041 32 33.5041C33.3807 33.5041 34.5 34.6236 34.5 36.0045C34.5 37.3853 33.3807 38.5048 32 38.5048C30.6193 38.5048 29.5 37.3853 29.5 36.0045Z" fill="#117DF9"/>
<path fill-rule="evenodd" clip-rule="evenodd" d="M44 19.5023C44 18.6737 43.3284 18.0021 42.5 18.0021C41.6716 18.0021 41 18.6737 41 19.5023V22.2097C38.6915 22.8627 37 24.9854 37 27.5033C37 30.0212 38.6915 32.144 41 32.797V44.5056C41 45.3341 41.6716 46.0058 42.5 46.0058C43.3284 46.0058 44 45.3341 44 44.5056V32.797C46.3085 32.144 48 30.0212 48 27.5033C48 24.9854 46.3085 22.8627 44 22.2097V19.5023ZM42.5 25.003C41.1193 25.003 40 26.1224 40 27.5033C40 28.8842 41.1193 30.0037 42.5 30.0037C43.8807 30.0037 45 28.8842 45 27.5033C45 26.1224 43.8807 25.003 42.5 25.003Z" fill="#117DF9"/>
</svg>
