<svg width="64" height="64" viewBox="0 0 64 64" fill="none" xmlns="http://www.w3.org/2000/svg">
<path d="M21.6475 35.5035L29.6475 35.5035" stroke="#FF8E05" stroke-width="3" stroke-linecap="round" stroke-linejoin="round"/>
<path d="M29.5 46.5049H46.5032" stroke="#FF8E05" stroke-width="3" stroke-linecap="round" stroke-linejoin="round"/>
<mask id="path-4-inside-1_157_2094" fill="white">
<path d="M18 46.0041L23.6785 17.6087C23.8654 16.6738 24.6863 16.0009 25.6396 16.0009H38.3603C39.3137 16.0009 40.1346 16.6738 40.3215 17.6087L46 46.0048"/>
</mask>
<path d="M15.0582 45.4158C14.7333 47.0405 15.787 48.6209 17.4117 48.9458C19.0364 49.2707 20.6169 48.2171 20.9418 46.5924L15.0582 45.4158ZM43.0582 46.5931C43.3831 48.2178 44.9636 49.2715 46.5883 48.9466C48.213 48.6217 49.2667 47.0412 48.9418 45.4165L43.0582 46.5931ZM40.3215 17.6087L37.3798 18.1969L40.3215 17.6087ZM20.9418 46.5924L26.6202 18.197L20.7367 17.0204L15.0582 45.4158L20.9418 46.5924ZM25.6396 19.0009H38.3603V13.0009H25.6396V19.0009ZM37.3798 18.1969L43.0582 46.5931L48.9418 45.4165L43.2633 17.0204L37.3798 18.1969ZM38.3603 19.0009C37.8837 19.0009 37.4732 18.6644 37.3798 18.1969L43.2633 17.0204C42.7959 14.6832 40.7438 13.0009 38.3603 13.0009V19.0009ZM26.6202 18.197C26.5268 18.6644 26.1163 19.0009 25.6396 19.0009V13.0009C23.2562 13.0009 21.2041 14.6832 20.7367 17.0204L26.6202 18.197Z" fill="#FF8E05" mask="url(#path-4-inside-1_157_2094)"/>
<mask id="path-6-inside-2_157_2094" fill="white">
<path d="M18 46.0032L23.6785 17.6078C23.8654 16.6729 24.6863 16 25.6396 16H32.3603C33.3137 16 34.1346 16.6729 34.3215 17.6078L40 46.004"/>
</mask>
<path d="M15.0582 45.4149C14.7333 47.0396 15.787 48.6201 17.4117 48.945C19.0364 49.2699 20.6169 48.2162 20.9418 46.5915L15.0582 45.4149ZM37.0582 46.5922C37.3831 48.2169 38.9636 49.2706 40.5883 48.9457C42.213 48.6208 43.2667 47.0404 42.9418 45.4157L37.0582 46.5922ZM34.3215 17.6078L31.3798 18.1961L34.3215 17.6078ZM20.9418 46.5915L26.6202 18.1961L20.7367 17.0195L15.0582 45.4149L20.9418 46.5915ZM25.6396 19H32.3603V13H25.6396V19ZM31.3798 18.1961L37.0582 46.5922L42.9418 45.4157L37.2633 17.0195L31.3798 18.1961ZM32.3603 19C31.8837 19 31.4732 18.6635 31.3798 18.1961L37.2633 17.0195C36.7959 14.6824 34.7438 13 32.3603 13V19ZM26.6202 18.1961C26.5268 18.6635 26.1163 19 25.6396 19V13C23.2562 13 21.2041 14.6824 20.7367 17.0195L26.6202 18.1961Z" fill="#FF8E05" mask="url(#path-6-inside-2_157_2094)"/>
<mask id="path-8-inside-3_157_2094" fill="white">
<path d="M18 46.0041L23.6785 17.6087C23.8654 16.6738 24.6863 16.0009 25.6396 16.0009H26.3603C27.3137 16.0009 28.1346 16.6738 28.3215 17.6087L34 46.0048"/>
</mask>
<path d="M15.0582 45.4158C14.7333 47.0405 15.787 48.6209 17.4117 48.9458C19.0364 49.2707 20.6169 48.2171 20.9418 46.5924L15.0582 45.4158ZM31.0582 46.5931C31.3831 48.2178 32.9636 49.2715 34.5883 48.9466C36.213 48.6217 37.2667 47.0412 36.9418 45.4165L31.0582 46.5931ZM28.3215 17.6087L25.3798 18.1969L28.3215 17.6087ZM20.9418 46.5924L26.6202 18.197L20.7367 17.0204L15.0582 45.4158L20.9418 46.5924ZM25.6396 19.0009H26.3603V13.0009H25.6396V19.0009ZM25.3798 18.1969L31.0582 46.5931L36.9418 45.4165L31.2633 17.0204L25.3798 18.1969ZM26.3603 19.0009C25.8837 19.0009 25.4732 18.6644 25.3798 18.1969L31.2633 17.0204C30.7959 14.6832 28.7438 13.0009 26.3603 13.0009V19.0009ZM26.6202 18.197C26.5268 18.6644 26.1163 19.0009 25.6396 19.0009V13.0009C23.2562 13.0009 21.2041 14.6832 20.7367 17.0204L26.6202 18.197Z" fill="#FF8E05" mask="url(#path-8-inside-3_157_2094)"/>
<path d="M17.5 46.5049H22.5" stroke="#FF8E05" stroke-width="3" stroke-linecap="round" stroke-linejoin="round"/>
</svg>
