<svg width="64" height="64" viewBox="0 0 64 64" fill="none" xmlns="http://www.w3.org/2000/svg">
<rect width="64" height="64" rx="8" fill="#F6F8FB"/>
<path d="M29.3499 7.00014C23.8062 7.00014 18.8809 10.5219 17.1642 15.72C15.4024 16.0783 13.7381 16.8027 12.2822 17.8449C10.8262 18.8872 9.61198 20.2234 8.72024 21.7646C5.93986 26.5056 6.57475 32.4656 10.2996 36.5291C9.14958 39.9327 9.54426 43.6573 11.3808 46.7393C14.1442 51.497 19.7043 53.9353 25.1453 52.8008C26.3366 54.1272 27.8008 55.1878 29.4404 55.9119C31.0799 56.636 32.8571 57.0069 34.6534 56.9999C40.1972 56.9999 45.1224 53.4781 46.8392 48.28C50.4089 47.5517 53.4812 45.3504 55.2661 42.2354C58.0635 37.4945 57.4286 31.5345 53.7044 27.4709V27.4541C54.2725 25.7717 54.4699 23.9891 54.2834 22.2254C54.0969 20.4617 53.5309 18.7576 52.6231 17.2271C49.8592 12.4862 44.2984 10.0474 38.8751 11.1819C37.6783 9.85891 36.2102 8.80195 34.5681 8.08102C32.9259 7.36009 31.1473 6.99166 29.3499 7.00014ZM29.3499 10.2513L29.3329 10.2681C31.5641 10.2681 33.7096 11.0301 35.4258 12.4358C35.357 12.4694 35.2196 12.554 35.1168 12.605L25.0255 18.3449C24.5104 18.6328 24.2015 19.1746 24.2015 19.7674V33.2449L19.8594 30.7731V19.6318C19.8584 17.1466 20.8574 14.7627 22.6369 13.0037C24.4164 11.2447 26.8309 10.2552 29.3499 10.2513ZM41.5065 14.1751C43.1788 14.1719 44.8223 14.6044 46.2709 15.4287C47.7195 16.2531 48.9219 17.4401 49.7564 18.8698C50.8547 20.7663 51.2664 22.9844 50.8887 25.1346C50.82 25.0836 50.6832 25.0164 50.5968 24.9655L40.5055 19.2082C40.2516 19.0666 39.9649 18.9921 39.6733 18.9921C39.3816 18.9921 39.0949 19.0666 38.841 19.2082L27.0159 25.947V21.0027L36.7813 15.432C38.2171 14.6108 39.8468 14.1771 41.5065 14.1745V14.1751ZM16.5469 19.2928V31.1283C16.5469 31.721 16.8558 32.246 17.3709 32.5508L29.1784 39.2728L24.8187 41.7614L15.0704 36.2076C12.8918 34.962 11.3033 32.9145 10.6534 30.5145C10.0035 28.1146 10.3454 25.5583 11.604 23.4067C12.7143 21.5081 14.463 20.053 16.5469 19.2928ZM39.167 22.2218L48.9324 27.7757C53.4806 30.3663 55.0247 36.0894 52.3987 40.5765L52.4158 40.5933C51.3004 42.4898 49.5496 43.9459 47.4729 44.6911V32.855C47.4729 32.2622 47.1639 31.7204 46.6488 31.4331L34.8243 24.6937L39.167 22.2218ZM31.9929 26.3028L36.9704 29.1472V34.8193L31.9929 37.6637L27.0159 34.8193V29.1472L31.9929 26.3028ZM39.8189 30.7731L44.161 33.2449V44.3695C44.161 49.5508 39.9047 53.7499 34.6705 53.7499V53.7331C32.4563 53.7331 30.2937 52.9711 28.5946 51.566C28.6633 51.5324 28.8178 51.4472 28.9035 51.3962L38.9949 45.6564C39.51 45.3684 39.8359 44.8266 39.8183 44.2339L39.8189 30.7731ZM36.9868 38.0537V42.9974L27.2215 48.5512C22.6732 51.1251 16.8723 49.6012 14.2463 45.1308H14.2634C13.1481 43.2511 12.7528 41.0163 13.1304 38.866C13.1991 38.917 13.3366 38.9842 13.4223 39.0352L23.5137 44.7924C23.7675 44.9341 24.0542 45.0085 24.3459 45.0085C24.6376 45.0085 24.9243 44.9341 25.1781 44.7924L36.9868 38.0537Z" fill="#0F0F0F"/>
</svg>
