<svg width="64" height="64" viewBox="0 0 64 64" fill="none" xmlns="http://www.w3.org/2000/svg">
<rect width="64" height="64" rx="8" fill="#362A79"/>
<path d="M31.9995 32.0002V23.2002L39.3328 27.6002V36.4002L31.9995 32.0002Z" fill="#AB9FF4"/>
<path d="M31.9993 32.0002L24.666 36.4002V27.6002L31.9993 23.2002V32.0002Z" fill="#8D7CF6"/>
<path d="M39.3327 36.4005L31.9993 40.8005L24.666 36.4005L31.9993 32.0005L39.3327 36.4005Z" fill="#624DE3"/>
<path d="M46.6665 32.0002V23.2002L53.9998 27.6002V36.4002L46.6665 32.0002Z" fill="#624DE3"/>
<path d="M54.0002 36.4005L46.6668 40.8005L39.3335 36.4005L46.6668 32.0005L54.0002 36.4005Z" fill="#AB9FF4"/>
<path d="M24.6663 45.1999L17.333 49.5999V40.7999L24.6663 36.3999V45.1999Z" fill="#AB9FF4"/>
<path d="M31.9997 49.6002L24.6663 54.0002L17.333 49.6002L24.6663 45.2002L31.9997 49.6002Z" fill="#624DE3"/>
<path d="M24.6667 27.6002L17.3333 32.0002L10 27.6002L17.3333 23.2002L24.6667 27.6002Z" fill="#AB9FF4"/>
<path d="M17.3333 40.7996V31.9996L10 27.5996V36.3996L17.3333 40.7996Z" fill="#624DE3"/>
<path d="M39.3335 53.9998V45.1998L46.6668 40.7998V49.5998L39.3335 53.9998Z" fill="#624DE3"/>
<path d="M39.3338 53.9998V45.1998L32.0005 40.7998V49.5998L39.3338 53.9998Z" fill="#AB9FF4"/>
<path d="M46.6672 14.4L39.3338 18.8L32.0005 14.4L39.3338 10L46.6672 14.4Z" fill="#624DE3"/>
<path d="M39.3335 27.5999V18.7999L46.6668 14.3999V23.1999L39.3335 27.5999Z" fill="#AB9FF4"/>
<path d="M24.666 18.8V10L31.9993 14.4V23.2L24.666 18.8Z" fill="#AB9FF4"/>
<path d="M24.6663 18.8L17.333 23.2V14.4L24.6663 10V18.8Z" fill="#624DE3"/>
</svg>
