<svg width="76" height="22" viewBox="0 0 76 22" fill="none" xmlns="http://www.w3.org/2000/svg">
<g clip-path="url(#clip0_141_2018)">
<path d="M26.2386 12.496L27.9693 12.144C28.0084 12.7209 28.2186 13.1756 28.6 13.508C28.9813 13.8404 29.5142 14.0067 30.1986 14.0067C30.9124 14.0067 31.4649 13.8844 31.856 13.64C32.2471 13.3858 32.4426 13.024 32.4426 12.5547C32.4426 12.2124 32.3351 11.9338 32.12 11.7187C31.9146 11.5036 31.6409 11.3422 31.2986 11.2347C30.9662 11.1271 30.5946 11.0342 30.184 10.956C29.7831 10.868 29.3773 10.7653 28.9666 10.648C28.556 10.5209 28.1795 10.3596 27.8373 10.164C27.5049 9.96845 27.2311 9.67511 27.016 9.284C26.8106 8.89289 26.708 8.41378 26.708 7.84667C26.708 6.98622 27.0453 6.25778 27.72 5.66133C28.4044 5.06489 29.3089 4.76667 30.4333 4.76667C31.548 4.76667 32.4329 5.05511 33.088 5.632C33.7431 6.19911 34.1146 6.94711 34.2026 7.876L32.472 8.19867C32.4622 7.66089 32.2813 7.22089 31.9293 6.87867C31.5773 6.53645 31.0786 6.36533 30.4333 6.36533C29.8173 6.36533 29.3333 6.49245 28.9813 6.74667C28.6391 6.99111 28.468 7.34311 28.468 7.80267C28.468 8.10578 28.5706 8.36 28.776 8.56534C28.9911 8.76089 29.2698 8.91245 29.612 9.02C29.9542 9.11778 30.3306 9.21067 30.7413 9.29867C31.152 9.37689 31.5626 9.48445 31.9733 9.62134C32.384 9.74845 32.7604 9.91956 33.1026 10.1347C33.4449 10.34 33.7186 10.6431 33.924 11.044C34.1391 11.4351 34.2466 11.9142 34.2466 12.4813C34.2466 13.4298 33.8702 14.1876 33.1173 14.7547C32.3644 15.3218 31.3622 15.6053 30.1106 15.6053C28.8982 15.6053 27.9742 15.312 27.3386 14.7253C26.7031 14.1289 26.3364 13.3858 26.2386 12.496Z" fill="#FFFFFF"/>
<path d="M37.3522 14.4027V18.4507H35.6069V7.788H37.2202V8.87334C37.758 8.03245 38.6135 7.612 39.7869 7.612C40.882 7.612 41.7424 7.99334 42.3682 8.756C43.0038 9.51867 43.3215 10.4671 43.3215 11.6013C43.3215 12.7356 43.0038 13.684 42.3682 14.4467C41.7424 15.1996 40.882 15.576 39.7869 15.576C38.6722 15.576 37.8606 15.1849 37.3522 14.4027ZM37.2935 11.6013C37.2935 12.3053 37.4842 12.8871 37.8655 13.3467C38.2566 13.8062 38.7798 14.036 39.4349 14.036C40.0802 14.036 40.5984 13.8062 40.9895 13.3467C41.3806 12.8773 41.5762 12.2956 41.5762 11.6013C41.5762 10.8876 41.3806 10.296 40.9895 9.82667C40.5984 9.35734 40.0802 9.12267 39.4349 9.12267C38.7798 9.12267 38.2566 9.35734 37.8655 9.82667C37.4842 10.2862 37.2935 10.8778 37.2935 11.6013Z" fill="#FFFFFF"/>
<path d="M49.6831 12.9067L51.2524 13.3173C50.9786 14.0116 50.5338 14.564 49.9178 14.9747C49.3115 15.3756 48.6026 15.576 47.7911 15.576C46.6569 15.576 45.7378 15.1996 45.0338 14.4467C44.3395 13.6938 43.9924 12.7404 43.9924 11.5867C43.9924 10.4622 44.3444 9.51867 45.0484 8.756C45.7524 7.99334 46.6618 7.612 47.7764 7.612C48.8911 7.612 49.7906 7.98845 50.4751 8.74134C51.1693 9.48445 51.5164 10.4231 51.5164 11.5573L51.5018 12.1H45.7084C45.7769 12.7062 45.9969 13.1902 46.3684 13.552C46.74 13.904 47.2289 14.08 47.8351 14.08C48.7346 14.08 49.3506 13.6889 49.6831 12.9067ZM47.7764 9.03467C47.2289 9.03467 46.7742 9.196 46.4124 9.51867C46.0506 9.84134 45.8258 10.2716 45.7378 10.8093H49.7858C49.7075 10.2716 49.4924 9.84134 49.1404 9.51867C48.7884 9.196 48.3338 9.03467 47.7764 9.03467Z" fill="#FFFFFF"/>
<path d="M55.9588 14.036C56.4184 14.036 56.8144 13.9089 57.1468 13.6547C57.4793 13.4004 57.6993 13.0631 57.8068 12.6427L59.4788 13.0533C59.2539 13.7867 58.8482 14.3929 58.2615 14.872C57.6846 15.3413 56.9219 15.576 55.9735 15.576C54.8686 15.576 53.9593 15.1947 53.2455 14.432C52.5317 13.6596 52.1748 12.716 52.1748 11.6013C52.1748 10.4769 52.5317 9.53334 53.2455 8.77067C53.9593 7.99822 54.8686 7.612 55.9735 7.612C56.9219 7.612 57.6846 7.85156 58.2615 8.33067C58.8482 8.8 59.2539 9.40134 59.4788 10.1347L57.8068 10.5453C57.6993 10.1249 57.4793 9.78756 57.1468 9.53334C56.8144 9.27911 56.4184 9.152 55.9588 9.152C55.3428 9.152 54.849 9.38178 54.4775 9.84134C54.1059 10.2911 53.9202 10.8778 53.9202 11.6013C53.9202 12.3249 54.1059 12.9116 54.4775 13.3613C54.849 13.8111 55.3428 14.036 55.9588 14.036Z" fill="#FFFFFF"/>
<path d="M61.4208 6.512C61.0981 6.512 60.8341 6.41422 60.6288 6.21867C60.4234 6.01334 60.3208 5.75422 60.3208 5.44134C60.3208 5.11867 60.4234 4.85467 60.6288 4.64933C60.8341 4.444 61.0981 4.34134 61.4208 4.34134C61.7337 4.34134 61.9928 4.444 62.1981 4.64933C62.4034 4.85467 62.5061 5.11867 62.5061 5.44134C62.5061 5.75422 62.4034 6.01334 62.1981 6.21867C61.9928 6.41422 61.7337 6.512 61.4208 6.512ZM60.5408 15.4V7.788H62.2861V15.4H60.5408Z" fill="#FFFFFF"/>
<path d="M64.2616 7.788V6.98134C64.2616 6.12089 64.4816 5.47556 64.9216 5.04534C65.3616 4.61511 65.963 4.4 66.7256 4.4L67.3123 4.444V5.984C67.2536 5.96445 67.1461 5.95467 66.9896 5.95467C66.6376 5.95467 66.3834 6.04267 66.227 6.21867C66.0803 6.38489 66.007 6.67334 66.007 7.084V7.788H67.3563V9.18134H66.007V15.4H64.2616V9.18134H63.0443V7.788H64.2616Z" fill="#FFFFFF"/>
<path d="M70.3085 15.3267L67.2432 7.788H69.1059L71.1739 13.3027L73.2712 7.788H75.0899L71.7165 16.0747C71.3352 17.0133 70.905 17.6684 70.4259 18.04C69.9468 18.4213 69.3503 18.612 68.6366 18.612L68.1379 18.5827V17.028C68.2748 17.0378 68.4214 17.0427 68.5779 17.0427C68.9103 17.0427 69.1988 16.9547 69.4432 16.7787C69.6974 16.6027 69.9272 16.2604 70.1325 15.752L70.3085 15.3267Z" fill="#FFFFFF"/>
<path d="M11 11V6.6L14.6667 8.8V13.2L11 11Z" fill="#AB9FF4"/>
<path d="M11 11L7.33337 13.2V8.8L11 6.6V11Z" fill="#8D7CF6"/>
<path d="M14.6667 13.2L11 15.4L7.33337 13.2L11 11L14.6667 13.2Z" fill="#624DE3"/>
<path d="M18.3333 11V6.6L21.9999 8.8V13.2L18.3333 11Z" fill="#624DE3"/>
<path d="M22 13.2L18.3333 15.4L14.6666 13.2L18.3333 11L22 13.2Z" fill="#AB9FF4"/>
<path d="M7.33329 17.6L3.66663 19.8V15.4L7.33329 13.2V17.6Z" fill="#AB9FF4"/>
<path d="M11 19.8L7.33329 22L3.66663 19.8L7.33329 17.6L11 19.8Z" fill="#624DE3"/>
<path d="M7.33333 8.8L3.66667 11L0 8.8L3.66667 6.6L7.33333 8.8Z" fill="#AB9FF4"/>
<path d="M3.66667 15.4V11L0 8.8V13.2L3.66667 15.4Z" fill="#624DE3"/>
<path d="M14.6666 22V17.6L18.3333 15.4V19.8L14.6666 22Z" fill="#624DE3"/>
<path d="M14.6667 22V17.6L11 15.4V19.8L14.6667 22Z" fill="#AB9FF4"/>
<path d="M18.3333 2.2L14.6667 4.4L11 2.2L14.6667 1.90735e-06L18.3333 2.2Z" fill="#624DE3"/>
<path d="M14.6666 8.8V4.4L18.3333 2.2V6.6L14.6666 8.8Z" fill="#AB9FF4"/>
<path d="M7.33325 4.4V1.90735e-06L10.9999 2.2V6.6L7.33325 4.4Z" fill="#AB9FF4"/>
<path d="M7.33329 4.4L3.66663 6.6V2.2L7.33329 1.90735e-06V4.4Z" fill="#624DE3"/>
</g>
<defs>
<clipPath id="clip0_141_2018">
<rect width="75.5333" height="22" fill="white"/>
</clipPath>
</defs>
</svg>
